<svg width="1932" height="828" viewBox="0 0 1932 828" fill="none" xmlns="http://www.w3.org/2000/svg">
  <defs>
    <linearGradient id="bg" x1="0" y1="0" x2="1932" y2="828" gradientUnits="userSpaceOnUse">
      <stop offset="0" stop-color="#1b2a45"/>
      <stop offset="1" stop-color="#0c1424"/>
    </linearGradient>
    <linearGradient id="gold" x1="150" y1="150" x2="670" y2="670" gradientUnits="userSpaceOnUse">
      <stop offset="0" stop-color="#f8e29a"/>
      <stop offset="1" stop-color="#e7bf5f"/>
    </linearGradient>
  </defs>

  <rect width="1932" height="828" fill="url(#bg)"/>

  <!-- logo chip -->
  <rect x="150" y="150" width="520" height="520" rx="96" fill="#16233b"/>

  <!-- building mark -->
  <g transform="translate(89,93)">
    <path d="M300 138 L459 251 H141 Z" fill="url(#gold)"/>
    <rect x="155" y="270" width="290" height="30" rx="7" fill="url(#gold)"/>
    <rect x="176" y="317" width="35" height="140" rx="8" fill="url(#gold)"/>
    <rect x="249" y="317" width="35" height="140" rx="8" fill="url(#gold)"/>
    <rect x="316" y="317" width="35" height="140" rx="8" fill="url(#gold)"/>
    <rect x="389" y="317" width="35" height="140" rx="8" fill="url(#gold)"/>
    <rect x="141" y="471" width="318" height="33" rx="9" fill="url(#gold)"/>
    <text x="300" y="234" font-family="Arial, sans-serif" font-size="100" font-weight="900" fill="#0c1424" text-anchor="middle">₩</text>
  </g>

  <!-- text lockup -->
  <text x="736" y="392" font-family="'Apple SD Gothic Neo','Noto Sans KR',sans-serif" font-size="140" font-weight="900" fill="#ffffff">부동산 <tspan fill="#f4d582">영끌</tspan>메이커</text>
  <rect x="740" y="430" width="150" height="10" rx="5" fill="#f4d582"/>
  <text x="740" y="520" font-family="'Apple SD Gothic Neo','Noto Sans KR',sans-serif" font-size="52" font-weight="500" fill="#cbd5e6">내 소득 맞춤 계산부터 철저한 빚 관리까지</text>
</svg>
